# xmcd CD database file
#
# Track frame offsets:
#	150
#	12888
#	27221
#	39754
#	53982
#	65369
#	79434
#	91409
#	107387
#	120805
#	177456
#	191982
#	207221
#	219650
#	232500
#	246356
#	258321
#	272647
#	287446
#	301460
#	313163
#	327013
#
# Disc length: 4553 seconds
#
# Revision: 0
# Processed by: cddbd v1.5.2PL0 Copyright (c) Steve Scherf et al.
# Submitted via: CDex 1.70beta2
#
DISCID=2911c716
DTITLE=Various Artist - The Story Of Big Bands 1914 - 1955 (3)
DYEAR=2006
DGENRE=Jazz
TTITLE0=Claude Hopkins And His Orchestra, In The Shade Of The Old Apple Tree
TTITLE1=Chick Webb And His Orchestra, Stompin' At The Savoy
TTITLE2=Noble Sissle And His International Orchestra, Polka Dot Rag
TTITLE3=Fletcher Henderson And His Orchestra, Shanghai Shuffle
TTITLE4=Earl Hines And His Orchestra, Copenhagen
TTITLE5=Jimmi Lunceford And His Orchestra, Stomp It Off
TTITLE6=Chick Webb And His Orchestra, Don't Be That Way
TTITLE7=Benny Goodman And His Orchestra, Blue Skies
TTITLE8=Willie Bryant And His Orchestra, Liza
TTITLE9=Duke Ellington And His Famous Orchestra, Reminiscing In Tempo
TTITLE10=Andy Kirk And His Twelve Clouds Of Joy, Froggy Bottom
TTITLE11=Willi Lewis, Christopher Columbus
TTITLE12=Teddy Hill And His Orchestra, Passionette
TTITLE13=Louis Armstrong And His Orchestra, Swing That Music
TTITLE14=Ben Pollack And His Orchestra, Jimtown Blues
TTITLE15=Jimmie Lunceford And His Orchestra, Organ Grinder's Swing
TTITLE16=Roy Eldridge, Wabash Stomp
TTITLE17=Red Norvo Blackhawk Orchestra, Remember
TTITLE18=Teddy Hill And His NBC Orchestra, King Porter Stomp
TTITLE19=Bunny Berigan And His Orchestra, Mahogany Hall Stomp
TTITLE20=Count Basie And His Orchestra, One O'Clock Jump
TTITLE21=Count Basie And His Orchestra, Topsy
EXTD=YEAR: 2006
EXTT0=
EXTT1=
EXTT2=
EXTT3=
EXTT4=
EXTT5=
EXTT6=
EXTT7=
EXTT8=
EXTT9=
EXTT10=
EXTT11=
EXTT12=
EXTT13=
EXTT14=
EXTT15=
EXTT16=
EXTT17=
EXTT18=
EXTT19=
EXTT20=
EXTT21=
PLAYORDER=
